<?xml version="1.0" encoding="utf-8"?>
<!-- Generator: Adobe Illustrator 17.1.0, SVG Export Plug-In . SVG Version: 6.00 Build 0)  -->
<!DOCTYPE svg PUBLIC "-//W3C//DTD SVG 1.1//EN" "http://www.w3.org/Graphics/SVG/1.1/DTD/svg11.dtd">
<svg version="1.1" id="Layer_1" xmlns="http://www.w3.org/2000/svg" xmlns:xlink="http://www.w3.org/1999/xlink" x="0px" y="0px"
	 viewBox="0 0 76.5 240.5" enable-background="new 0 0 76.5 240.5" xml:space="preserve">
<g>
	<polygon fill="#424D51" points="-118.2,-27.8 -118.2,240.5 -47,240.5 -47,24.1 	"/>
	<g>
		<rect x="-111.9" y="33.9" fill="#FAF5EF" width="14.5" height="14.5"/>
		<rect x="-111.9" y="55.9" fill="#FAF5EF" width="14.5" height="14.5"/>
		<rect x="-111.9" y="78" fill="#FAF5EF" width="14.5" height="14.5"/>
		<rect x="-111.9" y="100" fill="#FAF5EF" width="14.5" height="14.5"/>
		<rect x="-111.9" y="122.1" fill="#FAF5EF" width="14.5" height="14.5"/>
		<rect x="-111.9" y="144.1" fill="#FAF5EF" width="14.5" height="14.5"/>
		<rect x="-111.9" y="166.2" fill="#FAF5EF" width="14.5" height="14.5"/>
		<rect x="-111.9" y="188.2" fill="#FAF5EF" width="14.5" height="14.5"/>
		<rect x="-111.9" y="210.3" fill="#FAF5EF" width="14.5" height="14.5"/>
	</g>
	<g>
		<rect x="-89.9" y="33.9" fill="#FAF5EF" width="14.5" height="14.5"/>
		<rect x="-89.9" y="55.9" fill="#FAF5EF" width="14.5" height="14.5"/>
		<rect x="-89.9" y="78" fill="#FAF5EF" width="14.5" height="14.5"/>
		<rect x="-89.9" y="100" fill="#FAF5EF" width="14.5" height="14.5"/>
		<rect x="-89.9" y="122.1" fill="#FAF5EF" width="14.5" height="14.5"/>
		<rect x="-89.9" y="144.1" fill="#FAF5EF" width="14.5" height="14.5"/>
		<rect x="-89.9" y="166.2" fill="#FAF5EF" width="14.5" height="14.5"/>
		<rect x="-89.9" y="188.2" fill="#FAF5EF" width="14.5" height="14.5"/>
		<rect x="-89.9" y="210.3" fill="#FAF5EF" width="14.5" height="14.5"/>
	</g>
	<g>
		<rect x="-67.8" y="33.9" fill="#FAF5EF" width="14.5" height="14.5"/>
		<rect x="-67.8" y="55.9" fill="#FAF5EF" width="14.5" height="14.5"/>
		<rect x="-67.8" y="78" fill="#FAF5EF" width="14.5" height="14.5"/>
		<rect x="-67.8" y="100" fill="#FAF5EF" width="14.5" height="14.5"/>
		<rect x="-67.8" y="122.1" fill="#FAF5EF" width="14.5" height="14.5"/>
		<rect x="-67.8" y="144.1" fill="#FAF5EF" width="14.5" height="14.5"/>
		<rect x="-67.8" y="166.2" fill="#FAF5EF" width="14.5" height="14.5"/>
		<rect x="-67.8" y="188.2" fill="#FAF5EF" width="14.5" height="14.5"/>
		<rect x="-67.8" y="210.3" fill="#FAF5EF" width="14.5" height="14.5"/>
	</g>
</g>
<g>
	<rect x="-47.2" y="-29.7" fill="#DBBFBB" width="47.2" height="270.2"/>
	<rect x="-38.9" y="-17.5" fill="#847574" width="11.6" height="14.5"/>
	<rect x="-38.9" y="4.6" fill="#847574" width="11.6" height="14.5"/>
	<rect x="-38.9" y="26.6" fill="#847574" width="11.6" height="14.5"/>
	<rect x="-38.9" y="48.7" fill="#847574" width="11.6" height="14.5"/>
	<rect x="-38.9" y="70.7" fill="#847574" width="11.6" height="14.5"/>
	<rect x="-38.9" y="92.7" fill="#847574" width="11.6" height="14.5"/>
	<rect x="-38.9" y="114.8" fill="#847574" width="11.6" height="14.5"/>
	<rect x="-38.9" y="136.8" fill="#847574" width="11.6" height="14.5"/>
	<rect x="-38.9" y="158.9" fill="#847574" width="11.6" height="14.5"/>
	<rect x="-21.2" y="-17.5" fill="#847574" width="11.6" height="14.5"/>
	<rect x="-21.2" y="4.6" fill="#847574" width="11.6" height="14.5"/>
	<rect x="-21.2" y="26.6" fill="#847574" width="11.6" height="14.5"/>
	<rect x="-21.2" y="48.7" fill="#847574" width="11.6" height="14.5"/>
	<rect x="-21.2" y="70.7" fill="#847574" width="11.6" height="14.5"/>
	<rect x="-21.2" y="92.7" fill="#847574" width="11.6" height="14.5"/>
	<rect x="-21.2" y="114.8" fill="#847574" width="11.6" height="14.5"/>
	<rect x="-21.2" y="136.8" fill="#847574" width="11.6" height="14.5"/>
	<rect x="-21.2" y="158.9" fill="#847574" width="11.6" height="14.5"/>
	<rect x="-38.9" y="180.3" fill="#847574" width="11.6" height="14.5"/>
	<rect x="-38.9" y="202.3" fill="#847574" width="11.6" height="14.5"/>
	<rect x="-21.2" y="180.3" fill="#847574" width="11.6" height="14.5"/>
	<rect x="-21.2" y="202.3" fill="#847574" width="11.6" height="14.5"/>
	<polygon fill="#FAF5EF" points="-11.1,-54.3 -23.6,-54.3 -36.1,-54.3 -51.3,-29.7 -23.6,-29.7 4,-29.7 	"/>
</g>
<g>
	<rect x="76.5" y="-43" fill="#6F6D46" width="65.2" height="283.4"/>
	<rect x="90.9" y="-17.3" fill="#444529" width="14.5" height="37.2"/>
	<rect x="90.9" y="39.3" fill="#444529" width="14.5" height="37.2"/>
	<rect x="90.9" y="96" fill="#444529" width="14.5" height="37.2"/>
	<rect x="90.9" y="152.7" fill="#444529" width="14.5" height="37.2"/>
	<rect x="112.9" y="-17.3" fill="#444529" width="14.5" height="37.2"/>
	<rect x="112.9" y="39.3" fill="#444529" width="14.5" height="37.2"/>
	<rect x="112.9" y="96" fill="#444529" width="14.5" height="37.2"/>
	<rect x="112.9" y="152.7" fill="#444529" width="14.5" height="37.2"/>
	<rect x="76.5" y="-52.1" fill="#444529" width="65.2" height="9.1"/>
</g>
<g>
	<rect x="-198.5" y="104.4" fill="#FAF5EF" width="80.3" height="136.1"/>
	<rect x="-186.4" y="113.6" fill="#424D51" width="56" height="8.3"/>
	<rect x="-186.4" y="129.6" fill="#424D51" width="56" height="8.3"/>
	<rect x="-186.4" y="145.6" fill="#424D51" width="56" height="8.3"/>
	<rect x="-186.4" y="161.6" fill="#424D51" width="56" height="8.3"/>
	<rect x="-186.4" y="177.5" fill="#424D51" width="56" height="8.3"/>
	<rect x="-186.4" y="193.5" fill="#424D51" width="56" height="8.3"/>
	<rect x="-186.4" y="209.5" fill="#424D51" width="56" height="8.3"/>
	<rect x="-180.3" y="87" fill="#424D51" width="43.9" height="17.5"/>
</g>
<g>
	<rect x="141.7" y="104.4" fill="#424D51" width="80.3" height="136.1"/>
	<rect x="152.6" y="118.6" fill="#FAF5EF" width="14.5" height="14.5"/>
	<rect x="152.6" y="140.6" fill="#FAF5EF" width="14.5" height="14.5"/>
	<rect x="152.6" y="162.6" fill="#FAF5EF" width="14.5" height="14.5"/>
	<rect x="152.6" y="184.7" fill="#FAF5EF" width="14.5" height="14.5"/>
	<rect x="152.6" y="206.7" fill="#FAF5EF" width="14.5" height="14.5"/>
	<rect x="174.6" y="118.6" fill="#FAF5EF" width="14.5" height="14.5"/>
	<rect x="174.6" y="140.6" fill="#FAF5EF" width="14.5" height="14.5"/>
	<rect x="174.6" y="162.6" fill="#FAF5EF" width="14.5" height="14.5"/>
	<rect x="174.6" y="184.7" fill="#FAF5EF" width="14.5" height="14.5"/>
	<rect x="174.6" y="206.7" fill="#FAF5EF" width="14.5" height="14.5"/>
	<rect x="196.7" y="118.6" fill="#FAF5EF" width="14.5" height="14.5"/>
	<rect x="196.7" y="140.6" fill="#FAF5EF" width="14.5" height="14.5"/>
	<rect x="196.7" y="162.6" fill="#FAF5EF" width="14.5" height="14.5"/>
	<rect x="196.7" y="184.7" fill="#FAF5EF" width="14.5" height="14.5"/>
	<rect x="196.7" y="206.7" fill="#FAF5EF" width="14.5" height="14.5"/>
	<rect x="159.9" y="87" fill="#FAF5EF" width="43.9" height="17.5"/>
</g>
<g>
	<rect x="0" y="11.8" fill="#BFCD80" width="76.5" height="228.7"/>
	<rect x="15.1" y="0.2" fill="#85915B" width="28.3" height="11.6"/>
	<rect x="12.8" y="21.9" fill="#85915B" width="13.6" height="218.5"/>
	<rect x="31.4" y="21.9" fill="#85915B" width="13.6" height="218.5"/>
	<rect x="50.1" y="21.9" fill="#85915B" width="13.6" height="218.5"/>
</g>
<g>
	<polygon fill="#424D51" points="444.8,-28 444.8,240.3 373.6,240.3 373.6,23.9 	"/>
	<g>
		<rect x="424" y="33.7" fill="#FAF5EF" width="14.5" height="14.5"/>
		<rect x="424" y="55.8" fill="#FAF5EF" width="14.5" height="14.5"/>
		<rect x="424" y="77.8" fill="#FAF5EF" width="14.5" height="14.5"/>
		<rect x="424" y="99.9" fill="#FAF5EF" width="14.5" height="14.5"/>
		<rect x="424" y="121.9" fill="#FAF5EF" width="14.5" height="14.5"/>
		<rect x="424" y="144" fill="#FAF5EF" width="14.5" height="14.5"/>
		<rect x="424" y="166" fill="#FAF5EF" width="14.5" height="14.5"/>
		<rect x="424" y="188" fill="#FAF5EF" width="14.5" height="14.5"/>
		<rect x="424" y="210.1" fill="#FAF5EF" width="14.5" height="14.5"/>
	</g>
	<g>
		<rect x="402" y="33.7" fill="#FAF5EF" width="14.5" height="14.5"/>
		<rect x="402" y="55.8" fill="#FAF5EF" width="14.5" height="14.5"/>
		<rect x="402" y="77.8" fill="#FAF5EF" width="14.5" height="14.5"/>
		<rect x="402" y="99.9" fill="#FAF5EF" width="14.5" height="14.5"/>
		<rect x="402" y="121.9" fill="#FAF5EF" width="14.5" height="14.5"/>
		<rect x="402" y="144" fill="#FAF5EF" width="14.5" height="14.5"/>
		<rect x="402" y="166" fill="#FAF5EF" width="14.5" height="14.5"/>
		<rect x="402" y="188" fill="#FAF5EF" width="14.5" height="14.5"/>
		<rect x="402" y="210.1" fill="#FAF5EF" width="14.5" height="14.5"/>
	</g>
	<g>
		<rect x="379.9" y="33.7" fill="#FAF5EF" width="14.5" height="14.5"/>
		<rect x="379.9" y="55.8" fill="#FAF5EF" width="14.5" height="14.5"/>
		<rect x="379.9" y="77.8" fill="#FAF5EF" width="14.5" height="14.5"/>
		<rect x="379.9" y="99.9" fill="#FAF5EF" width="14.5" height="14.5"/>
		<rect x="379.9" y="121.9" fill="#FAF5EF" width="14.5" height="14.5"/>
		<rect x="379.9" y="144" fill="#FAF5EF" width="14.5" height="14.5"/>
		<rect x="379.9" y="166" fill="#FAF5EF" width="14.5" height="14.5"/>
		<rect x="379.9" y="188" fill="#FAF5EF" width="14.5" height="14.5"/>
		<rect x="379.9" y="210.1" fill="#FAF5EF" width="14.5" height="14.5"/>
	</g>
</g>
<rect x="308.4" y="-83.2" fill="#6F6D46" width="65.2" height="323.4"/>
<rect x="344.8" y="-17.5" fill="#444529" width="14.5" height="37.2"/>
<rect x="344.8" y="39.1" fill="#444529" width="14.5" height="37.2"/>
<rect x="344.8" y="95.8" fill="#444529" width="14.5" height="37.2"/>
<rect x="344.8" y="152.5" fill="#444529" width="14.5" height="37.2"/>
<rect x="322.7" y="-17.5" fill="#444529" width="14.5" height="37.2"/>
<rect x="322.7" y="39.1" fill="#444529" width="14.5" height="37.2"/>
<rect x="322.7" y="95.8" fill="#444529" width="14.5" height="37.2"/>
<rect x="322.7" y="152.5" fill="#444529" width="14.5" height="37.2"/>
<rect x="308.4" y="-92.3" fill="#444529" width="65.2" height="9.1"/>
<g>
	<rect x="222" y="103.9" fill="#FAF5EF" width="80.3" height="136.1"/>
	<rect x="234.2" y="113.1" fill="#424D51" width="56" height="8.3"/>
	<rect x="234.2" y="129.1" fill="#424D51" width="56" height="8.3"/>
	<rect x="234.2" y="145.1" fill="#424D51" width="56" height="8.3"/>
	<rect x="234.2" y="161.1" fill="#424D51" width="56" height="8.3"/>
	<rect x="234.2" y="177" fill="#424D51" width="56" height="8.3"/>
	<rect x="234.2" y="193" fill="#424D51" width="56" height="8.3"/>
	<rect x="234.2" y="209" fill="#424D51" width="56" height="8.3"/>
	<rect x="240.2" y="86.4" fill="#424D51" width="43.9" height="17.5"/>
</g>
<g>
	<rect x="521.3" y="104.2" fill="#424D51" width="80.3" height="136.1"/>
	<rect x="576.3" y="118.4" fill="#FAF5EF" width="14.5" height="14.5"/>
	<rect x="576.3" y="140.4" fill="#FAF5EF" width="14.5" height="14.5"/>
	<rect x="576.3" y="162.5" fill="#FAF5EF" width="14.5" height="14.5"/>
	<rect x="576.3" y="184.5" fill="#FAF5EF" width="14.5" height="14.5"/>
	<rect x="576.3" y="206.6" fill="#FAF5EF" width="14.5" height="14.5"/>
	<rect x="554.2" y="118.4" fill="#FAF5EF" width="14.5" height="14.5"/>
	<rect x="554.2" y="140.4" fill="#FAF5EF" width="14.5" height="14.5"/>
	<rect x="554.2" y="162.5" fill="#FAF5EF" width="14.5" height="14.5"/>
	<rect x="554.2" y="184.5" fill="#FAF5EF" width="14.5" height="14.5"/>
	<rect x="554.2" y="206.6" fill="#FAF5EF" width="14.5" height="14.5"/>
	<rect x="532.2" y="118.4" fill="#FAF5EF" width="14.5" height="14.5"/>
	<rect x="532.2" y="140.4" fill="#FAF5EF" width="14.5" height="14.5"/>
	<rect x="532.2" y="162.5" fill="#FAF5EF" width="14.5" height="14.5"/>
	<rect x="532.2" y="184.5" fill="#FAF5EF" width="14.5" height="14.5"/>
	<rect x="532.2" y="206.6" fill="#FAF5EF" width="14.5" height="14.5"/>
	<rect x="539.5" y="86.8" fill="#FAF5EF" width="43.9" height="17.5"/>
</g>
<g>
	<rect x="444.8" y="11.6" fill="#BFCD80" width="76.5" height="228.7"/>
	<rect x="477.9" y="0" fill="#85915B" width="28.3" height="11.6"/>
	<rect x="494.9" y="21.8" fill="#85915B" width="13.6" height="218.5"/>
	<rect x="476.2" y="21.8" fill="#85915B" width="13.6" height="218.5"/>
	<rect x="457.5" y="21.8" fill="#85915B" width="13.6" height="218.5"/>
</g>
</svg>
