<?xml version="1.0" encoding="utf-8"?>
<!-- Generator: Adobe Illustrator 17.1.0, SVG Export Plug-In . SVG Version: 6.00 Build 0)  -->
<!DOCTYPE svg PUBLIC "-//W3C//DTD SVG 1.1//EN" "http://www.w3.org/Graphics/SVG/1.1/DTD/svg11.dtd">
<svg version="1.1" id="Layer_1" xmlns="http://www.w3.org/2000/svg" xmlns:xlink="http://www.w3.org/1999/xlink" x="0px" y="0px"
	 viewBox="0 0 71 268.3" enable-background="new 0 0 71 268.3" xml:space="preserve">
<g>
	<polygon fill="#424D51" points="0,0 0,268.3 71.2,268.3 71.2,52 	"/>
	<g>
		<rect x="6.3" y="61.7" fill="#FAF5EF" width="14.5" height="14.5"/>
		<rect x="6.3" y="83.8" fill="#FAF5EF" width="14.5" height="14.5"/>
		<rect x="6.3" y="105.8" fill="#FAF5EF" width="14.5" height="14.5"/>
		<rect x="6.3" y="127.9" fill="#FAF5EF" width="14.5" height="14.5"/>
		<rect x="6.3" y="149.9" fill="#FAF5EF" width="14.5" height="14.5"/>
		<rect x="6.3" y="172" fill="#FAF5EF" width="14.5" height="14.5"/>
		<rect x="6.3" y="194" fill="#FAF5EF" width="14.5" height="14.5"/>
		<rect x="6.3" y="216.1" fill="#FAF5EF" width="14.5" height="14.5"/>
		<rect x="6.3" y="238.1" fill="#FAF5EF" width="14.5" height="14.5"/>
	</g>
	<g>
		<rect x="28.3" y="61.7" fill="#FAF5EF" width="14.5" height="14.5"/>
		<rect x="28.3" y="83.8" fill="#FAF5EF" width="14.5" height="14.5"/>
		<rect x="28.3" y="105.8" fill="#FAF5EF" width="14.5" height="14.5"/>
		<rect x="28.3" y="127.9" fill="#FAF5EF" width="14.5" height="14.5"/>
		<rect x="28.3" y="149.9" fill="#FAF5EF" width="14.5" height="14.5"/>
		<rect x="28.3" y="172" fill="#FAF5EF" width="14.5" height="14.5"/>
		<rect x="28.3" y="194" fill="#FAF5EF" width="14.5" height="14.5"/>
		<rect x="28.3" y="216.1" fill="#FAF5EF" width="14.5" height="14.5"/>
		<rect x="28.3" y="238.1" fill="#FAF5EF" width="14.5" height="14.5"/>
	</g>
	<g>
		<rect x="50.4" y="61.7" fill="#FAF5EF" width="14.5" height="14.5"/>
		<rect x="50.4" y="83.8" fill="#FAF5EF" width="14.5" height="14.5"/>
		<rect x="50.4" y="105.8" fill="#FAF5EF" width="14.5" height="14.5"/>
		<rect x="50.4" y="127.9" fill="#FAF5EF" width="14.5" height="14.5"/>
		<rect x="50.4" y="149.9" fill="#FAF5EF" width="14.5" height="14.5"/>
		<rect x="50.4" y="172" fill="#FAF5EF" width="14.5" height="14.5"/>
		<rect x="50.4" y="194" fill="#FAF5EF" width="14.5" height="14.5"/>
		<rect x="50.4" y="216.1" fill="#FAF5EF" width="14.5" height="14.5"/>
		<rect x="50.4" y="238.1" fill="#FAF5EF" width="14.5" height="14.5"/>
	</g>
</g>
<g>
	<rect x="71" y="-1.9" fill="#DBBFBB" width="47.2" height="270.2"/>
	<rect x="79.4" y="10.4" fill="#847574" width="11.6" height="14.5"/>
	<rect x="79.4" y="32.4" fill="#847574" width="11.6" height="14.5"/>
	<rect x="79.4" y="54.5" fill="#847574" width="11.6" height="14.5"/>
	<rect x="79.4" y="76.5" fill="#847574" width="11.6" height="14.5"/>
	<rect x="79.4" y="98.5" fill="#847574" width="11.6" height="14.5"/>
	<rect x="79.4" y="120.6" fill="#847574" width="11.6" height="14.5"/>
	<rect x="79.4" y="142.6" fill="#847574" width="11.6" height="14.5"/>
	<rect x="79.4" y="164.7" fill="#847574" width="11.6" height="14.5"/>
	<rect x="79.4" y="186.7" fill="#847574" width="11.6" height="14.5"/>
	<rect x="97" y="10.4" fill="#847574" width="11.6" height="14.5"/>
	<rect x="97" y="32.4" fill="#847574" width="11.6" height="14.5"/>
	<rect x="97" y="54.5" fill="#847574" width="11.6" height="14.5"/>
	<rect x="97" y="76.5" fill="#847574" width="11.6" height="14.5"/>
	<rect x="97" y="98.5" fill="#847574" width="11.6" height="14.5"/>
	<rect x="97" y="120.6" fill="#847574" width="11.6" height="14.5"/>
	<rect x="97" y="142.6" fill="#847574" width="11.6" height="14.5"/>
	<rect x="97" y="164.7" fill="#847574" width="11.6" height="14.5"/>
	<rect x="97" y="186.7" fill="#847574" width="11.6" height="14.5"/>
	<rect x="79.4" y="208.1" fill="#847574" width="11.6" height="14.5"/>
	<rect x="79.4" y="230.2" fill="#847574" width="11.6" height="14.5"/>
	<rect x="97" y="208.1" fill="#847574" width="11.6" height="14.5"/>
	<rect x="97" y="230.2" fill="#847574" width="11.6" height="14.5"/>
	<polygon fill="#FAF5EF" points="107.1,-26.5 94.6,-26.5 82.1,-26.5 67,-1.9 94.6,-1.9 122.2,-1.9 	"/>
</g>
<g>
	<rect x="194.7" y="-15.1" fill="#6F6D46" width="65.2" height="283.4"/>
	<rect x="209.1" y="10.5" fill="#444529" width="14.5" height="37.2"/>
	<rect x="209.1" y="67.2" fill="#444529" width="14.5" height="37.2"/>
	<rect x="209.1" y="123.8" fill="#444529" width="14.5" height="37.2"/>
	<rect x="209.1" y="180.5" fill="#444529" width="14.5" height="37.2"/>
	<rect x="231.1" y="10.5" fill="#444529" width="14.5" height="37.2"/>
	<rect x="231.1" y="67.2" fill="#444529" width="14.5" height="37.2"/>
	<rect x="231.1" y="123.8" fill="#444529" width="14.5" height="37.2"/>
	<rect x="231.1" y="180.5" fill="#444529" width="14.5" height="37.2"/>
	<rect x="194.7" y="-24.3" fill="#444529" width="65.2" height="9.1"/>
</g>
<g>
	<rect x="-80.3" y="132.3" fill="#FAF5EF" width="80.3" height="136.1"/>
	<rect x="-68.2" y="141.5" fill="#424D51" width="56" height="8.3"/>
	<rect x="-68.2" y="157.5" fill="#424D51" width="56" height="8.3"/>
	<rect x="-68.2" y="173.4" fill="#424D51" width="56" height="8.3"/>
	<rect x="-68.2" y="189.4" fill="#424D51" width="56" height="8.3"/>
	<rect x="-68.2" y="205.4" fill="#424D51" width="56" height="8.3"/>
	<rect x="-68.2" y="221.3" fill="#424D51" width="56" height="8.3"/>
	<rect x="-68.2" y="237.3" fill="#424D51" width="56" height="8.3"/>
	<rect x="-62.1" y="114.8" fill="#424D51" width="43.9" height="17.5"/>
</g>
<g>
	<rect x="259.9" y="132.3" fill="#424D51" width="80.3" height="136.1"/>
	<rect x="270.8" y="146.4" fill="#FAF5EF" width="14.5" height="14.5"/>
	<rect x="270.8" y="168.4" fill="#FAF5EF" width="14.5" height="14.5"/>
	<rect x="270.8" y="190.5" fill="#FAF5EF" width="14.5" height="14.5"/>
	<rect x="270.8" y="212.5" fill="#FAF5EF" width="14.5" height="14.5"/>
	<rect x="270.8" y="234.6" fill="#FAF5EF" width="14.5" height="14.5"/>
	<rect x="292.8" y="146.4" fill="#FAF5EF" width="14.5" height="14.5"/>
	<rect x="292.8" y="168.4" fill="#FAF5EF" width="14.5" height="14.5"/>
	<rect x="292.8" y="190.5" fill="#FAF5EF" width="14.5" height="14.5"/>
	<rect x="292.8" y="212.5" fill="#FAF5EF" width="14.5" height="14.5"/>
	<rect x="292.8" y="234.6" fill="#FAF5EF" width="14.5" height="14.5"/>
	<rect x="314.9" y="146.4" fill="#FAF5EF" width="14.5" height="14.5"/>
	<rect x="314.9" y="168.4" fill="#FAF5EF" width="14.5" height="14.5"/>
	<rect x="314.9" y="190.5" fill="#FAF5EF" width="14.5" height="14.5"/>
	<rect x="314.9" y="212.5" fill="#FAF5EF" width="14.5" height="14.5"/>
	<rect x="314.9" y="234.6" fill="#FAF5EF" width="14.5" height="14.5"/>
	<rect x="278.1" y="114.8" fill="#FAF5EF" width="43.9" height="17.5"/>
</g>
<g>
	<rect x="118.2" y="39.6" fill="#BFCD80" width="76.5" height="228.7"/>
	<rect x="133.3" y="28" fill="#85915B" width="28.3" height="11.6"/>
	<rect x="131" y="49.8" fill="#85915B" width="13.6" height="218.5"/>
	<rect x="149.7" y="49.8" fill="#85915B" width="13.6" height="218.5"/>
	<rect x="168.4" y="49.8" fill="#85915B" width="13.6" height="218.5"/>
</g>
<g>
	<polygon fill="#424D51" points="563,-0.2 563,268.1 491.8,268.1 491.8,51.8 	"/>
	<g>
		<rect x="542.2" y="61.6" fill="#FAF5EF" width="14.5" height="14.5"/>
		<rect x="542.2" y="83.6" fill="#FAF5EF" width="14.5" height="14.5"/>
		<rect x="542.2" y="105.7" fill="#FAF5EF" width="14.5" height="14.5"/>
		<rect x="542.2" y="127.7" fill="#FAF5EF" width="14.5" height="14.5"/>
		<rect x="542.2" y="149.7" fill="#FAF5EF" width="14.5" height="14.5"/>
		<rect x="542.2" y="171.8" fill="#FAF5EF" width="14.5" height="14.5"/>
		<rect x="542.2" y="193.8" fill="#FAF5EF" width="14.5" height="14.5"/>
		<rect x="542.2" y="215.9" fill="#FAF5EF" width="14.5" height="14.5"/>
		<rect x="542.2" y="237.9" fill="#FAF5EF" width="14.5" height="14.5"/>
	</g>
	<g>
		<rect x="520.2" y="61.6" fill="#FAF5EF" width="14.5" height="14.5"/>
		<rect x="520.2" y="83.6" fill="#FAF5EF" width="14.5" height="14.5"/>
		<rect x="520.2" y="105.7" fill="#FAF5EF" width="14.5" height="14.5"/>
		<rect x="520.2" y="127.7" fill="#FAF5EF" width="14.5" height="14.5"/>
		<rect x="520.2" y="149.7" fill="#FAF5EF" width="14.5" height="14.5"/>
		<rect x="520.2" y="171.8" fill="#FAF5EF" width="14.5" height="14.5"/>
		<rect x="520.2" y="193.8" fill="#FAF5EF" width="14.5" height="14.5"/>
		<rect x="520.2" y="215.9" fill="#FAF5EF" width="14.5" height="14.5"/>
		<rect x="520.2" y="237.9" fill="#FAF5EF" width="14.5" height="14.5"/>
	</g>
	<g>
		<rect x="498.1" y="61.6" fill="#FAF5EF" width="14.5" height="14.5"/>
		<rect x="498.1" y="83.6" fill="#FAF5EF" width="14.5" height="14.5"/>
		<rect x="498.1" y="105.7" fill="#FAF5EF" width="14.5" height="14.5"/>
		<rect x="498.1" y="127.7" fill="#FAF5EF" width="14.5" height="14.5"/>
		<rect x="498.1" y="149.7" fill="#FAF5EF" width="14.5" height="14.5"/>
		<rect x="498.1" y="171.8" fill="#FAF5EF" width="14.5" height="14.5"/>
		<rect x="498.1" y="193.8" fill="#FAF5EF" width="14.5" height="14.5"/>
		<rect x="498.1" y="215.9" fill="#FAF5EF" width="14.5" height="14.5"/>
		<rect x="498.1" y="237.9" fill="#FAF5EF" width="14.5" height="14.5"/>
	</g>
</g>
<rect x="426.6" y="-55.3" fill="#6F6D46" width="65.2" height="323.4"/>
<rect x="463" y="10.3" fill="#444529" width="14.5" height="37.2"/>
<rect x="463" y="67" fill="#444529" width="14.5" height="37.2"/>
<rect x="463" y="123.6" fill="#444529" width="14.5" height="37.2"/>
<rect x="463" y="180.3" fill="#444529" width="14.5" height="37.2"/>
<rect x="441" y="10.3" fill="#444529" width="14.5" height="37.2"/>
<rect x="441" y="67" fill="#444529" width="14.5" height="37.2"/>
<rect x="441" y="123.6" fill="#444529" width="14.5" height="37.2"/>
<rect x="441" y="180.3" fill="#444529" width="14.5" height="37.2"/>
<rect x="426.6" y="-64.5" fill="#444529" width="65.2" height="9.1"/>
<g>
	<rect x="340.2" y="131.8" fill="#FAF5EF" width="80.3" height="136.1"/>
	<rect x="352.4" y="141" fill="#424D51" width="56" height="8.3"/>
	<rect x="352.4" y="157" fill="#424D51" width="56" height="8.3"/>
	<rect x="352.4" y="172.9" fill="#424D51" width="56" height="8.3"/>
	<rect x="352.4" y="188.9" fill="#424D51" width="56" height="8.3"/>
	<rect x="352.4" y="204.9" fill="#424D51" width="56" height="8.3"/>
	<rect x="352.4" y="220.8" fill="#424D51" width="56" height="8.3"/>
	<rect x="352.4" y="236.8" fill="#424D51" width="56" height="8.3"/>
	<rect x="358.4" y="114.3" fill="#424D51" width="43.9" height="17.5"/>
</g>
<g>
	<rect x="639.5" y="132.1" fill="#424D51" width="80.3" height="136.1"/>
	<rect x="694.5" y="146.2" fill="#FAF5EF" width="14.5" height="14.5"/>
	<rect x="694.5" y="168.3" fill="#FAF5EF" width="14.5" height="14.5"/>
	<rect x="694.5" y="190.3" fill="#FAF5EF" width="14.5" height="14.5"/>
	<rect x="694.5" y="212.4" fill="#FAF5EF" width="14.5" height="14.5"/>
	<rect x="694.5" y="234.4" fill="#FAF5EF" width="14.5" height="14.5"/>
	<rect x="672.4" y="146.2" fill="#FAF5EF" width="14.5" height="14.5"/>
	<rect x="672.4" y="168.3" fill="#FAF5EF" width="14.5" height="14.5"/>
	<rect x="672.4" y="190.3" fill="#FAF5EF" width="14.5" height="14.5"/>
	<rect x="672.4" y="212.4" fill="#FAF5EF" width="14.5" height="14.5"/>
	<rect x="672.4" y="234.4" fill="#FAF5EF" width="14.5" height="14.5"/>
	<rect x="650.4" y="146.2" fill="#FAF5EF" width="14.5" height="14.5"/>
	<rect x="650.4" y="168.3" fill="#FAF5EF" width="14.5" height="14.5"/>
	<rect x="650.4" y="190.3" fill="#FAF5EF" width="14.5" height="14.5"/>
	<rect x="650.4" y="212.4" fill="#FAF5EF" width="14.5" height="14.5"/>
	<rect x="650.4" y="234.4" fill="#FAF5EF" width="14.5" height="14.5"/>
	<rect x="657.7" y="114.6" fill="#FAF5EF" width="43.9" height="17.5"/>
</g>
<g>
	<rect x="563" y="39.4" fill="#BFCD80" width="76.5" height="228.7"/>
	<rect x="596.1" y="27.8" fill="#85915B" width="28.3" height="11.6"/>
	<rect x="613.1" y="49.6" fill="#85915B" width="13.6" height="218.5"/>
	<rect x="594.4" y="49.6" fill="#85915B" width="13.6" height="218.5"/>
	<rect x="575.8" y="49.6" fill="#85915B" width="13.6" height="218.5"/>
</g>
</svg>
