<?xml version="1.0" encoding="utf-8"?>
<!-- Generator: Adobe Illustrator 17.1.0, SVG Export Plug-In . SVG Version: 6.00 Build 0)  -->
<!DOCTYPE svg PUBLIC "-//W3C//DTD SVG 1.1//EN" "http://www.w3.org/Graphics/SVG/1.1/DTD/svg11.dtd">
<svg version="1.1" id="Layer_1" xmlns="http://www.w3.org/2000/svg" xmlns:xlink="http://www.w3.org/1999/xlink" x="0px" y="0px"
	 viewBox="0 0 420.6 294.8" enable-background="new 0 0 420.6 294.8" xml:space="preserve">
<g>
	<polygon fill="#424D51" points="80.3,26.5 80.3,294.8 151.5,294.8 151.5,78.4 	"/>
	<g>
		<rect x="86.6" y="88.2" fill="#FAF5EF" width="14.5" height="14.5"/>
		<rect x="86.6" y="110.2" fill="#FAF5EF" width="14.5" height="14.5"/>
		<rect x="86.6" y="132.3" fill="#FAF5EF" width="14.5" height="14.5"/>
		<rect x="86.6" y="154.3" fill="#FAF5EF" width="14.5" height="14.5"/>
		<rect x="86.6" y="176.4" fill="#FAF5EF" width="14.5" height="14.5"/>
		<rect x="86.6" y="198.4" fill="#FAF5EF" width="14.5" height="14.5"/>
		<rect x="86.6" y="220.5" fill="#FAF5EF" width="14.5" height="14.5"/>
		<rect x="86.6" y="242.5" fill="#FAF5EF" width="14.5" height="14.5"/>
		<rect x="86.6" y="264.6" fill="#FAF5EF" width="14.5" height="14.5"/>
	</g>
	<g>
		<rect x="108.7" y="88.2" fill="#FAF5EF" width="14.5" height="14.5"/>
		<rect x="108.7" y="110.2" fill="#FAF5EF" width="14.5" height="14.5"/>
		<rect x="108.7" y="132.3" fill="#FAF5EF" width="14.5" height="14.5"/>
		<rect x="108.7" y="154.3" fill="#FAF5EF" width="14.5" height="14.5"/>
		<rect x="108.7" y="176.4" fill="#FAF5EF" width="14.5" height="14.5"/>
		<rect x="108.7" y="198.4" fill="#FAF5EF" width="14.5" height="14.5"/>
		<rect x="108.7" y="220.5" fill="#FAF5EF" width="14.5" height="14.5"/>
		<rect x="108.7" y="242.5" fill="#FAF5EF" width="14.5" height="14.5"/>
		<rect x="108.7" y="264.6" fill="#FAF5EF" width="14.5" height="14.5"/>
	</g>
	<g>
		<rect x="130.7" y="88.2" fill="#FAF5EF" width="14.5" height="14.5"/>
		<rect x="130.7" y="110.2" fill="#FAF5EF" width="14.5" height="14.5"/>
		<rect x="130.7" y="132.3" fill="#FAF5EF" width="14.5" height="14.5"/>
		<rect x="130.7" y="154.3" fill="#FAF5EF" width="14.5" height="14.5"/>
		<rect x="130.7" y="176.4" fill="#FAF5EF" width="14.5" height="14.5"/>
		<rect x="130.7" y="198.4" fill="#FAF5EF" width="14.5" height="14.5"/>
		<rect x="130.7" y="220.5" fill="#FAF5EF" width="14.5" height="14.5"/>
		<rect x="130.7" y="242.5" fill="#FAF5EF" width="14.5" height="14.5"/>
		<rect x="130.7" y="264.6" fill="#FAF5EF" width="14.5" height="14.5"/>
	</g>
</g>
<g>
	<rect x="151.3" y="24.6" fill="#DBBFBB" width="47.2" height="270.2"/>
	<rect x="159.7" y="36.8" fill="#847574" width="11.6" height="14.5"/>
	<rect x="159.7" y="58.9" fill="#847574" width="11.6" height="14.5"/>
	<rect x="159.7" y="80.9" fill="#847574" width="11.6" height="14.5"/>
	<rect x="159.7" y="103" fill="#847574" width="11.6" height="14.5"/>
	<rect x="159.7" y="125" fill="#847574" width="11.6" height="14.5"/>
	<rect x="159.7" y="147" fill="#847574" width="11.6" height="14.5"/>
	<rect x="159.7" y="169.1" fill="#847574" width="11.6" height="14.5"/>
	<rect x="159.7" y="191.1" fill="#847574" width="11.6" height="14.5"/>
	<rect x="159.7" y="213.2" fill="#847574" width="11.6" height="14.5"/>
	<rect x="177.3" y="36.8" fill="#847574" width="11.6" height="14.5"/>
	<rect x="177.3" y="58.9" fill="#847574" width="11.6" height="14.5"/>
	<rect x="177.3" y="80.9" fill="#847574" width="11.6" height="14.5"/>
	<rect x="177.3" y="103" fill="#847574" width="11.6" height="14.5"/>
	<rect x="177.3" y="125" fill="#847574" width="11.6" height="14.5"/>
	<rect x="177.3" y="147" fill="#847574" width="11.6" height="14.5"/>
	<rect x="177.3" y="169.1" fill="#847574" width="11.6" height="14.5"/>
	<rect x="177.3" y="191.1" fill="#847574" width="11.6" height="14.5"/>
	<rect x="177.3" y="213.2" fill="#847574" width="11.6" height="14.5"/>
	<rect x="159.7" y="234.6" fill="#847574" width="11.6" height="14.5"/>
	<rect x="159.7" y="256.6" fill="#847574" width="11.6" height="14.5"/>
	<rect x="177.3" y="234.6" fill="#847574" width="11.6" height="14.5"/>
	<rect x="177.3" y="256.6" fill="#847574" width="11.6" height="14.5"/>
	<polygon fill="#FAF5EF" points="187.4,0 174.9,0 162.4,0 147.3,24.6 174.9,24.6 202.5,24.6 	"/>
</g>
<g>
	<rect x="275.1" y="11.3" fill="#6F6D46" width="65.2" height="283.4"/>
	<rect x="289.4" y="37" fill="#444529" width="14.5" height="37.2"/>
	<rect x="289.4" y="93.6" fill="#444529" width="14.5" height="37.2"/>
	<rect x="289.4" y="150.3" fill="#444529" width="14.5" height="37.2"/>
	<rect x="289.4" y="207" fill="#444529" width="14.5" height="37.2"/>
	<rect x="311.4" y="37" fill="#444529" width="14.5" height="37.2"/>
	<rect x="311.4" y="93.6" fill="#444529" width="14.5" height="37.2"/>
	<rect x="311.4" y="150.3" fill="#444529" width="14.5" height="37.2"/>
	<rect x="311.4" y="207" fill="#444529" width="14.5" height="37.2"/>
	<rect x="275.1" y="2.2" fill="#444529" width="65.2" height="9.1"/>
</g>
<g>
	<rect x="0" y="158.7" fill="#FAF5EF" width="80.3" height="136.1"/>
	<rect x="12.1" y="167.9" fill="#424D51" width="56" height="8.3"/>
	<rect x="12.1" y="183.9" fill="#424D51" width="56" height="8.3"/>
	<rect x="12.1" y="199.9" fill="#424D51" width="56" height="8.3"/>
	<rect x="12.1" y="215.9" fill="#424D51" width="56" height="8.3"/>
	<rect x="12.1" y="231.8" fill="#424D51" width="56" height="8.3"/>
	<rect x="12.1" y="247.8" fill="#424D51" width="56" height="8.3"/>
	<rect x="12.1" y="263.8" fill="#424D51" width="56" height="8.3"/>
	<rect x="18.2" y="141.3" fill="#424D51" width="43.9" height="17.5"/>
</g>
<g>
	<rect x="340.2" y="158.7" fill="#424D51" width="80.3" height="136.1"/>
	<rect x="351.1" y="172.9" fill="#FAF5EF" width="14.5" height="14.5"/>
	<rect x="351.1" y="194.9" fill="#FAF5EF" width="14.5" height="14.5"/>
	<rect x="351.1" y="216.9" fill="#FAF5EF" width="14.5" height="14.5"/>
	<rect x="351.1" y="239" fill="#FAF5EF" width="14.5" height="14.5"/>
	<rect x="351.1" y="261" fill="#FAF5EF" width="14.5" height="14.5"/>
	<rect x="373.2" y="172.9" fill="#FAF5EF" width="14.5" height="14.5"/>
	<rect x="373.2" y="194.9" fill="#FAF5EF" width="14.5" height="14.5"/>
	<rect x="373.2" y="216.9" fill="#FAF5EF" width="14.5" height="14.5"/>
	<rect x="373.2" y="239" fill="#FAF5EF" width="14.5" height="14.5"/>
	<rect x="373.2" y="261" fill="#FAF5EF" width="14.5" height="14.5"/>
	<rect x="395.2" y="172.9" fill="#FAF5EF" width="14.5" height="14.5"/>
	<rect x="395.2" y="194.9" fill="#FAF5EF" width="14.5" height="14.5"/>
	<rect x="395.2" y="216.9" fill="#FAF5EF" width="14.5" height="14.5"/>
	<rect x="395.2" y="239" fill="#FAF5EF" width="14.5" height="14.5"/>
	<rect x="395.2" y="261" fill="#FAF5EF" width="14.5" height="14.5"/>
	<rect x="358.4" y="141.3" fill="#FAF5EF" width="43.9" height="17.5"/>
</g>
<g>
	<rect x="198.5" y="66.1" fill="#BFCD80" width="76.5" height="228.7"/>
	<rect x="213.6" y="54.5" fill="#85915B" width="28.3" height="11.6"/>
	<rect x="211.3" y="76.2" fill="#85915B" width="13.6" height="218.5"/>
	<rect x="230" y="76.2" fill="#85915B" width="13.6" height="218.5"/>
	<rect x="248.7" y="76.2" fill="#85915B" width="13.6" height="218.5"/>
</g>
</svg>
