<?xml version="1.0" encoding="utf-8"?>
<!-- Generator: Adobe Illustrator 17.1.0, SVG Export Plug-In . SVG Version: 6.00 Build 0)  -->
<!DOCTYPE svg PUBLIC "-//W3C//DTD SVG 1.1//EN" "http://www.w3.org/Graphics/SVG/1.1/DTD/svg11.dtd">
<svg version="1.1" id="Layer_1" xmlns="http://www.w3.org/2000/svg" xmlns:xlink="http://www.w3.org/1999/xlink" x="0px" y="0px"
	 viewBox="0 0 80.3 153" enable-background="new 0 0 80.3 153" xml:space="preserve">
<g>
	<polygon fill="#424D51" points="-259.9,-114.8 -259.9,153.5 -188.8,153.5 -188.8,-62.8 	"/>
	<g>
		<rect x="-253.6" y="-53" fill="#FAF5EF" width="14.5" height="14.5"/>
		<rect x="-253.6" y="-31" fill="#FAF5EF" width="14.5" height="14.5"/>
		<rect x="-253.6" y="-9" fill="#FAF5EF" width="14.5" height="14.5"/>
		<rect x="-253.6" y="13.1" fill="#FAF5EF" width="14.5" height="14.5"/>
		<rect x="-253.6" y="35.1" fill="#FAF5EF" width="14.5" height="14.5"/>
		<rect x="-253.6" y="57.2" fill="#FAF5EF" width="14.5" height="14.5"/>
		<rect x="-253.6" y="79.2" fill="#FAF5EF" width="14.5" height="14.5"/>
		<rect x="-253.6" y="101.3" fill="#FAF5EF" width="14.5" height="14.5"/>
		<rect x="-253.6" y="123.3" fill="#FAF5EF" width="14.5" height="14.5"/>
	</g>
	<g>
		<rect x="-231.6" y="-53" fill="#FAF5EF" width="14.5" height="14.5"/>
		<rect x="-231.6" y="-31" fill="#FAF5EF" width="14.5" height="14.5"/>
		<rect x="-231.6" y="-9" fill="#FAF5EF" width="14.5" height="14.5"/>
		<rect x="-231.6" y="13.1" fill="#FAF5EF" width="14.5" height="14.5"/>
		<rect x="-231.6" y="35.1" fill="#FAF5EF" width="14.5" height="14.5"/>
		<rect x="-231.6" y="57.2" fill="#FAF5EF" width="14.5" height="14.5"/>
		<rect x="-231.6" y="79.2" fill="#FAF5EF" width="14.5" height="14.5"/>
		<rect x="-231.6" y="101.3" fill="#FAF5EF" width="14.5" height="14.5"/>
		<rect x="-231.6" y="123.3" fill="#FAF5EF" width="14.5" height="14.5"/>
	</g>
	<g>
		<rect x="-209.5" y="-53" fill="#FAF5EF" width="14.5" height="14.5"/>
		<rect x="-209.5" y="-31" fill="#FAF5EF" width="14.5" height="14.5"/>
		<rect x="-209.5" y="-9" fill="#FAF5EF" width="14.5" height="14.5"/>
		<rect x="-209.5" y="13.1" fill="#FAF5EF" width="14.5" height="14.5"/>
		<rect x="-209.5" y="35.1" fill="#FAF5EF" width="14.5" height="14.5"/>
		<rect x="-209.5" y="57.2" fill="#FAF5EF" width="14.5" height="14.5"/>
		<rect x="-209.5" y="79.2" fill="#FAF5EF" width="14.5" height="14.5"/>
		<rect x="-209.5" y="101.3" fill="#FAF5EF" width="14.5" height="14.5"/>
		<rect x="-209.5" y="123.3" fill="#FAF5EF" width="14.5" height="14.5"/>
	</g>
</g>
<g>
	<rect x="-189" y="-116.7" fill="#DBBFBB" width="47.2" height="270.2"/>
	<rect x="-180.6" y="-104.4" fill="#847574" width="11.6" height="14.5"/>
	<rect x="-180.6" y="-82.4" fill="#847574" width="11.6" height="14.5"/>
	<rect x="-180.6" y="-60.3" fill="#847574" width="11.6" height="14.5"/>
	<rect x="-180.6" y="-38.3" fill="#847574" width="11.6" height="14.5"/>
	<rect x="-180.6" y="-16.3" fill="#847574" width="11.6" height="14.5"/>
	<rect x="-180.6" y="5.8" fill="#847574" width="11.6" height="14.5"/>
	<rect x="-180.6" y="27.8" fill="#847574" width="11.6" height="14.5"/>
	<rect x="-180.6" y="49.9" fill="#847574" width="11.6" height="14.5"/>
	<rect x="-180.6" y="71.9" fill="#847574" width="11.6" height="14.5"/>
	<rect x="-162.9" y="-104.4" fill="#847574" width="11.6" height="14.5"/>
	<rect x="-162.9" y="-82.4" fill="#847574" width="11.6" height="14.5"/>
	<rect x="-162.9" y="-60.3" fill="#847574" width="11.6" height="14.5"/>
	<rect x="-162.9" y="-38.3" fill="#847574" width="11.6" height="14.5"/>
	<rect x="-162.9" y="-16.3" fill="#847574" width="11.6" height="14.5"/>
	<rect x="-162.9" y="5.8" fill="#847574" width="11.6" height="14.5"/>
	<rect x="-162.9" y="27.8" fill="#847574" width="11.6" height="14.5"/>
	<rect x="-162.9" y="49.9" fill="#847574" width="11.6" height="14.5"/>
	<rect x="-162.9" y="71.9" fill="#847574" width="11.6" height="14.5"/>
	<rect x="-180.6" y="93.3" fill="#847574" width="11.6" height="14.5"/>
	<rect x="-180.6" y="115.4" fill="#847574" width="11.6" height="14.5"/>
	<rect x="-162.9" y="93.3" fill="#847574" width="11.6" height="14.5"/>
	<rect x="-162.9" y="115.4" fill="#847574" width="11.6" height="14.5"/>
	<polygon fill="#FAF5EF" points="-152.8,-141.3 -165.3,-141.3 -177.9,-141.3 -193,-116.7 -165.3,-116.7 -137.7,-116.7 	"/>
</g>
<g>
	<rect x="-65.2" y="-129.9" fill="#6F6D46" width="65.2" height="283.4"/>
	<rect x="-50.9" y="-104.3" fill="#444529" width="14.5" height="37.2"/>
	<rect x="-50.9" y="-47.6" fill="#444529" width="14.5" height="37.2"/>
	<rect x="-50.9" y="9.1" fill="#444529" width="14.5" height="37.2"/>
	<rect x="-50.9" y="65.7" fill="#444529" width="14.5" height="37.2"/>
	<rect x="-28.8" y="-104.3" fill="#444529" width="14.5" height="37.2"/>
	<rect x="-28.8" y="-47.6" fill="#444529" width="14.5" height="37.2"/>
	<rect x="-28.8" y="9.1" fill="#444529" width="14.5" height="37.2"/>
	<rect x="-28.8" y="65.7" fill="#444529" width="14.5" height="37.2"/>
	<rect x="-65.2" y="-139" fill="#444529" width="65.2" height="9.1"/>
</g>
<g>
	<rect x="-340.2" y="17.5" fill="#FAF5EF" width="80.3" height="136.1"/>
	<rect x="-328.1" y="26.7" fill="#424D51" width="56" height="8.3"/>
	<rect x="-328.1" y="42.7" fill="#424D51" width="56" height="8.3"/>
	<rect x="-328.1" y="58.6" fill="#424D51" width="56" height="8.3"/>
	<rect x="-328.1" y="74.6" fill="#424D51" width="56" height="8.3"/>
	<rect x="-328.1" y="90.6" fill="#424D51" width="56" height="8.3"/>
	<rect x="-328.1" y="106.5" fill="#424D51" width="56" height="8.3"/>
	<rect x="-328.1" y="122.5" fill="#424D51" width="56" height="8.3"/>
	<rect x="-322.1" y="0" fill="#424D51" width="43.9" height="17.5"/>
</g>
<g>
	<rect x="0" y="17.5" fill="#424D51" width="80.3" height="136.1"/>
	<rect x="10.9" y="31.6" fill="#FAF5EF" width="14.5" height="14.5"/>
	<rect x="10.9" y="53.6" fill="#FAF5EF" width="14.5" height="14.5"/>
	<rect x="10.9" y="75.7" fill="#FAF5EF" width="14.5" height="14.5"/>
	<rect x="10.9" y="97.7" fill="#FAF5EF" width="14.5" height="14.5"/>
	<rect x="10.9" y="119.8" fill="#FAF5EF" width="14.5" height="14.5"/>
	<rect x="32.9" y="31.6" fill="#FAF5EF" width="14.5" height="14.5"/>
	<rect x="32.9" y="53.6" fill="#FAF5EF" width="14.5" height="14.5"/>
	<rect x="32.9" y="75.7" fill="#FAF5EF" width="14.5" height="14.5"/>
	<rect x="32.9" y="97.7" fill="#FAF5EF" width="14.5" height="14.5"/>
	<rect x="32.9" y="119.8" fill="#FAF5EF" width="14.5" height="14.5"/>
	<rect x="55" y="31.6" fill="#FAF5EF" width="14.5" height="14.5"/>
	<rect x="55" y="53.6" fill="#FAF5EF" width="14.5" height="14.5"/>
	<rect x="55" y="75.7" fill="#FAF5EF" width="14.5" height="14.5"/>
	<rect x="55" y="97.7" fill="#FAF5EF" width="14.5" height="14.5"/>
	<rect x="55" y="119.8" fill="#FAF5EF" width="14.5" height="14.5"/>
	<rect x="18.2" y="0" fill="#FAF5EF" width="43.9" height="17.5"/>
</g>
<g>
	<rect x="-141.7" y="-75.2" fill="#BFCD80" width="76.5" height="228.7"/>
	<rect x="-126.6" y="-86.8" fill="#85915B" width="28.3" height="11.6"/>
	<rect x="-129" y="-65" fill="#85915B" width="13.6" height="218.5"/>
	<rect x="-110.3" y="-65" fill="#85915B" width="13.6" height="218.5"/>
	<rect x="-91.6" y="-65" fill="#85915B" width="13.6" height="218.5"/>
</g>
<g>
	<polygon fill="#424D51" points="303.1,-115 303.1,153.3 231.9,153.3 231.9,-63 	"/>
	<g>
		<rect x="282.3" y="-53.2" fill="#FAF5EF" width="14.5" height="14.5"/>
		<rect x="282.3" y="-31.2" fill="#FAF5EF" width="14.5" height="14.5"/>
		<rect x="282.3" y="-9.1" fill="#FAF5EF" width="14.5" height="14.5"/>
		<rect x="282.3" y="12.9" fill="#FAF5EF" width="14.5" height="14.5"/>
		<rect x="282.3" y="35" fill="#FAF5EF" width="14.5" height="14.5"/>
		<rect x="282.3" y="57" fill="#FAF5EF" width="14.5" height="14.5"/>
		<rect x="282.3" y="79" fill="#FAF5EF" width="14.5" height="14.5"/>
		<rect x="282.3" y="101.1" fill="#FAF5EF" width="14.5" height="14.5"/>
		<rect x="282.3" y="123.1" fill="#FAF5EF" width="14.5" height="14.5"/>
	</g>
	<g>
		<rect x="260.2" y="-53.2" fill="#FAF5EF" width="14.5" height="14.5"/>
		<rect x="260.2" y="-31.2" fill="#FAF5EF" width="14.5" height="14.5"/>
		<rect x="260.2" y="-9.1" fill="#FAF5EF" width="14.5" height="14.5"/>
		<rect x="260.2" y="12.9" fill="#FAF5EF" width="14.5" height="14.5"/>
		<rect x="260.2" y="35" fill="#FAF5EF" width="14.5" height="14.5"/>
		<rect x="260.2" y="57" fill="#FAF5EF" width="14.5" height="14.5"/>
		<rect x="260.2" y="79" fill="#FAF5EF" width="14.5" height="14.5"/>
		<rect x="260.2" y="101.1" fill="#FAF5EF" width="14.5" height="14.5"/>
		<rect x="260.2" y="123.1" fill="#FAF5EF" width="14.5" height="14.5"/>
	</g>
	<g>
		<rect x="238.2" y="-53.2" fill="#FAF5EF" width="14.5" height="14.5"/>
		<rect x="238.2" y="-31.2" fill="#FAF5EF" width="14.5" height="14.5"/>
		<rect x="238.2" y="-9.1" fill="#FAF5EF" width="14.5" height="14.5"/>
		<rect x="238.2" y="12.9" fill="#FAF5EF" width="14.5" height="14.5"/>
		<rect x="238.2" y="35" fill="#FAF5EF" width="14.5" height="14.5"/>
		<rect x="238.2" y="57" fill="#FAF5EF" width="14.5" height="14.5"/>
		<rect x="238.2" y="79" fill="#FAF5EF" width="14.5" height="14.5"/>
		<rect x="238.2" y="101.1" fill="#FAF5EF" width="14.5" height="14.5"/>
		<rect x="238.2" y="123.1" fill="#FAF5EF" width="14.5" height="14.5"/>
	</g>
</g>
<rect x="166.7" y="-170.1" fill="#6F6D46" width="65.2" height="323.4"/>
<rect x="203.1" y="-104.5" fill="#444529" width="14.5" height="37.2"/>
<rect x="203.1" y="-47.8" fill="#444529" width="14.5" height="37.2"/>
<rect x="203.1" y="8.8" fill="#444529" width="14.5" height="37.2"/>
<rect x="203.1" y="65.5" fill="#444529" width="14.5" height="37.2"/>
<rect x="181" y="-104.5" fill="#444529" width="14.5" height="37.2"/>
<rect x="181" y="-47.8" fill="#444529" width="14.5" height="37.2"/>
<rect x="181" y="8.8" fill="#444529" width="14.5" height="37.2"/>
<rect x="181" y="65.5" fill="#444529" width="14.5" height="37.2"/>
<rect x="166.7" y="-179.3" fill="#444529" width="65.2" height="9.1"/>
<g>
	<rect x="80.3" y="17" fill="#FAF5EF" width="80.3" height="136.1"/>
	<rect x="92.5" y="26.2" fill="#424D51" width="56" height="8.3"/>
	<rect x="92.5" y="42.2" fill="#424D51" width="56" height="8.3"/>
	<rect x="92.5" y="58.1" fill="#424D51" width="56" height="8.3"/>
	<rect x="92.5" y="74.1" fill="#424D51" width="56" height="8.3"/>
	<rect x="92.5" y="90.1" fill="#424D51" width="56" height="8.3"/>
	<rect x="92.5" y="106" fill="#424D51" width="56" height="8.3"/>
	<rect x="92.5" y="122" fill="#424D51" width="56" height="8.3"/>
	<rect x="98.5" y="-0.5" fill="#424D51" width="43.9" height="17.5"/>
</g>
<g>
	<rect x="379.6" y="17.3" fill="#424D51" width="80.3" height="136.1"/>
	<rect x="434.6" y="31.4" fill="#FAF5EF" width="14.5" height="14.5"/>
	<rect x="434.6" y="53.5" fill="#FAF5EF" width="14.5" height="14.5"/>
	<rect x="434.6" y="75.5" fill="#FAF5EF" width="14.5" height="14.5"/>
	<rect x="434.6" y="97.6" fill="#FAF5EF" width="14.5" height="14.5"/>
	<rect x="434.6" y="119.6" fill="#FAF5EF" width="14.5" height="14.5"/>
	<rect x="412.5" y="31.4" fill="#FAF5EF" width="14.5" height="14.5"/>
	<rect x="412.5" y="53.5" fill="#FAF5EF" width="14.5" height="14.5"/>
	<rect x="412.5" y="75.5" fill="#FAF5EF" width="14.5" height="14.5"/>
	<rect x="412.5" y="97.6" fill="#FAF5EF" width="14.5" height="14.5"/>
	<rect x="412.5" y="119.6" fill="#FAF5EF" width="14.5" height="14.5"/>
	<rect x="390.5" y="31.4" fill="#FAF5EF" width="14.5" height="14.5"/>
	<rect x="390.5" y="53.5" fill="#FAF5EF" width="14.5" height="14.5"/>
	<rect x="390.5" y="75.5" fill="#FAF5EF" width="14.5" height="14.5"/>
	<rect x="390.5" y="97.6" fill="#FAF5EF" width="14.5" height="14.5"/>
	<rect x="390.5" y="119.6" fill="#FAF5EF" width="14.5" height="14.5"/>
	<rect x="397.8" y="-0.2" fill="#FAF5EF" width="43.9" height="17.5"/>
</g>
<g>
	<rect x="303.1" y="-75.4" fill="#BFCD80" width="76.5" height="228.7"/>
	<rect x="336.1" y="-87" fill="#85915B" width="28.3" height="11.6"/>
	<rect x="353.2" y="-65.2" fill="#85915B" width="13.6" height="218.5"/>
	<rect x="334.5" y="-65.2" fill="#85915B" width="13.6" height="218.5"/>
	<rect x="315.8" y="-65.2" fill="#85915B" width="13.6" height="218.5"/>
</g>
</svg>
