<?xml version="1.0" encoding="utf-8"?>
<!-- Generator: Adobe Illustrator 17.1.0, SVG Export Plug-In . SVG Version: 6.00 Build 0)  -->
<!DOCTYPE svg PUBLIC "-//W3C//DTD SVG 1.1//EN" "http://www.w3.org/Graphics/SVG/1.1/DTD/svg11.dtd">
<svg version="1.1" id="Layer_1" xmlns="http://www.w3.org/2000/svg" xmlns:xlink="http://www.w3.org/1999/xlink" x="0px" y="0px"
	 viewBox="0 0 80.3 163.7" enable-background="new 0 0 80.3 163.7" xml:space="preserve">
<g>
	<polygon fill="#424D51" points="80.3,-104.4 80.3,163.9 151.5,163.9 151.5,-52.5 	"/>
	<g>
		<rect x="86.6" y="-42.7" fill="#FAF5EF" width="14.5" height="14.5"/>
		<rect x="86.6" y="-20.6" fill="#FAF5EF" width="14.5" height="14.5"/>
		<rect x="86.6" y="1.4" fill="#FAF5EF" width="14.5" height="14.5"/>
		<rect x="86.6" y="23.5" fill="#FAF5EF" width="14.5" height="14.5"/>
		<rect x="86.6" y="45.5" fill="#FAF5EF" width="14.5" height="14.5"/>
		<rect x="86.6" y="67.6" fill="#FAF5EF" width="14.5" height="14.5"/>
		<rect x="86.6" y="89.6" fill="#FAF5EF" width="14.5" height="14.5"/>
		<rect x="86.6" y="111.7" fill="#FAF5EF" width="14.5" height="14.5"/>
		<rect x="86.6" y="133.7" fill="#FAF5EF" width="14.5" height="14.5"/>
	</g>
	<g>
		<rect x="108.7" y="-42.7" fill="#FAF5EF" width="14.5" height="14.5"/>
		<rect x="108.7" y="-20.6" fill="#FAF5EF" width="14.5" height="14.5"/>
		<rect x="108.7" y="1.4" fill="#FAF5EF" width="14.5" height="14.5"/>
		<rect x="108.7" y="23.5" fill="#FAF5EF" width="14.5" height="14.5"/>
		<rect x="108.7" y="45.5" fill="#FAF5EF" width="14.5" height="14.5"/>
		<rect x="108.7" y="67.6" fill="#FAF5EF" width="14.5" height="14.5"/>
		<rect x="108.7" y="89.6" fill="#FAF5EF" width="14.5" height="14.5"/>
		<rect x="108.7" y="111.7" fill="#FAF5EF" width="14.5" height="14.5"/>
		<rect x="108.7" y="133.7" fill="#FAF5EF" width="14.5" height="14.5"/>
	</g>
	<g>
		<rect x="130.7" y="-42.7" fill="#FAF5EF" width="14.5" height="14.5"/>
		<rect x="130.7" y="-20.6" fill="#FAF5EF" width="14.5" height="14.5"/>
		<rect x="130.7" y="1.4" fill="#FAF5EF" width="14.5" height="14.5"/>
		<rect x="130.7" y="23.5" fill="#FAF5EF" width="14.5" height="14.5"/>
		<rect x="130.7" y="45.5" fill="#FAF5EF" width="14.5" height="14.5"/>
		<rect x="130.7" y="67.6" fill="#FAF5EF" width="14.5" height="14.5"/>
		<rect x="130.7" y="89.6" fill="#FAF5EF" width="14.5" height="14.5"/>
		<rect x="130.7" y="111.7" fill="#FAF5EF" width="14.5" height="14.5"/>
		<rect x="130.7" y="133.7" fill="#FAF5EF" width="14.5" height="14.5"/>
	</g>
</g>
<g>
	<rect x="151.3" y="-106.3" fill="#DBBFBB" width="47.2" height="270.2"/>
	<rect x="159.7" y="-94.1" fill="#847574" width="11.6" height="14.5"/>
	<rect x="159.7" y="-72" fill="#847574" width="11.6" height="14.5"/>
	<rect x="159.7" y="-50" fill="#847574" width="11.6" height="14.5"/>
	<rect x="159.7" y="-27.9" fill="#847574" width="11.6" height="14.5"/>
	<rect x="159.7" y="-5.9" fill="#847574" width="11.6" height="14.5"/>
	<rect x="159.7" y="16.2" fill="#847574" width="11.6" height="14.5"/>
	<rect x="159.7" y="38.2" fill="#847574" width="11.6" height="14.5"/>
	<rect x="159.7" y="60.3" fill="#847574" width="11.6" height="14.5"/>
	<rect x="159.7" y="82.3" fill="#847574" width="11.6" height="14.5"/>
	<rect x="177.3" y="-94.1" fill="#847574" width="11.6" height="14.5"/>
	<rect x="177.3" y="-72" fill="#847574" width="11.6" height="14.5"/>
	<rect x="177.3" y="-50" fill="#847574" width="11.6" height="14.5"/>
	<rect x="177.3" y="-27.9" fill="#847574" width="11.6" height="14.5"/>
	<rect x="177.3" y="-5.9" fill="#847574" width="11.6" height="14.5"/>
	<rect x="177.3" y="16.2" fill="#847574" width="11.6" height="14.5"/>
	<rect x="177.3" y="38.2" fill="#847574" width="11.6" height="14.5"/>
	<rect x="177.3" y="60.3" fill="#847574" width="11.6" height="14.5"/>
	<rect x="177.3" y="82.3" fill="#847574" width="11.6" height="14.5"/>
	<rect x="159.7" y="103.7" fill="#847574" width="11.6" height="14.5"/>
	<rect x="159.7" y="125.8" fill="#847574" width="11.6" height="14.5"/>
	<rect x="177.3" y="103.7" fill="#847574" width="11.6" height="14.5"/>
	<rect x="177.3" y="125.8" fill="#847574" width="11.6" height="14.5"/>
	<polygon fill="#FAF5EF" points="187.4,-130.9 174.9,-130.9 162.4,-130.9 147.3,-106.3 174.9,-106.3 202.5,-106.3 	"/>
</g>
<g>
	<rect x="275.1" y="-119.5" fill="#6F6D46" width="65.2" height="283.4"/>
	<rect x="289.4" y="-93.9" fill="#444529" width="14.5" height="37.2"/>
	<rect x="289.4" y="-37.2" fill="#444529" width="14.5" height="37.2"/>
	<rect x="289.4" y="19.4" fill="#444529" width="14.5" height="37.2"/>
	<rect x="289.4" y="76.1" fill="#444529" width="14.5" height="37.2"/>
	<rect x="311.4" y="-93.9" fill="#444529" width="14.5" height="37.2"/>
	<rect x="311.4" y="-37.2" fill="#444529" width="14.5" height="37.2"/>
	<rect x="311.4" y="19.4" fill="#444529" width="14.5" height="37.2"/>
	<rect x="311.4" y="76.1" fill="#444529" width="14.5" height="37.2"/>
	<rect x="275.1" y="-128.7" fill="#444529" width="65.2" height="9.1"/>
</g>
<g>
	<rect x="0" y="27.9" fill="#FAF5EF" width="80.3" height="136.1"/>
	<rect x="12.1" y="37.1" fill="#424D51" width="56" height="8.3"/>
	<rect x="12.1" y="53" fill="#424D51" width="56" height="8.3"/>
	<rect x="12.1" y="69" fill="#424D51" width="56" height="8.3"/>
	<rect x="12.1" y="85" fill="#424D51" width="56" height="8.3"/>
	<rect x="12.1" y="101" fill="#424D51" width="56" height="8.3"/>
	<rect x="12.1" y="116.9" fill="#424D51" width="56" height="8.3"/>
	<rect x="12.1" y="132.9" fill="#424D51" width="56" height="8.3"/>
	<rect x="18.2" y="10.4" fill="#424D51" width="43.9" height="17.5"/>
</g>
<g>
	<rect x="340.2" y="27.9" fill="#424D51" width="80.3" height="136.1"/>
	<rect x="351.1" y="42" fill="#FAF5EF" width="14.5" height="14.5"/>
	<rect x="351.1" y="64" fill="#FAF5EF" width="14.5" height="14.5"/>
	<rect x="351.1" y="86.1" fill="#FAF5EF" width="14.5" height="14.5"/>
	<rect x="351.1" y="108.1" fill="#FAF5EF" width="14.5" height="14.5"/>
	<rect x="351.1" y="130.2" fill="#FAF5EF" width="14.5" height="14.5"/>
	<rect x="373.2" y="42" fill="#FAF5EF" width="14.5" height="14.5"/>
	<rect x="373.2" y="64" fill="#FAF5EF" width="14.5" height="14.5"/>
	<rect x="373.2" y="86.1" fill="#FAF5EF" width="14.5" height="14.5"/>
	<rect x="373.2" y="108.1" fill="#FAF5EF" width="14.5" height="14.5"/>
	<rect x="373.2" y="130.2" fill="#FAF5EF" width="14.5" height="14.5"/>
	<rect x="395.2" y="42" fill="#FAF5EF" width="14.5" height="14.5"/>
	<rect x="395.2" y="64" fill="#FAF5EF" width="14.5" height="14.5"/>
	<rect x="395.2" y="86.1" fill="#FAF5EF" width="14.5" height="14.5"/>
	<rect x="395.2" y="108.1" fill="#FAF5EF" width="14.5" height="14.5"/>
	<rect x="395.2" y="130.2" fill="#FAF5EF" width="14.5" height="14.5"/>
	<rect x="358.4" y="10.4" fill="#FAF5EF" width="43.9" height="17.5"/>
</g>
<g>
	<rect x="198.5" y="-64.8" fill="#BFCD80" width="76.5" height="228.7"/>
	<rect x="213.6" y="-76.4" fill="#85915B" width="28.3" height="11.6"/>
	<rect x="211.3" y="-54.6" fill="#85915B" width="13.6" height="218.5"/>
	<rect x="230" y="-54.6" fill="#85915B" width="13.6" height="218.5"/>
	<rect x="248.7" y="-54.6" fill="#85915B" width="13.6" height="218.5"/>
</g>
<g>
	<polygon fill="#424D51" points="643.3,-104.6 643.3,163.7 572.1,163.7 572.1,-52.6 	"/>
	<g>
		<rect x="622.5" y="-42.9" fill="#FAF5EF" width="14.5" height="14.5"/>
		<rect x="622.5" y="-20.8" fill="#FAF5EF" width="14.5" height="14.5"/>
		<rect x="622.5" y="1.2" fill="#FAF5EF" width="14.5" height="14.5"/>
		<rect x="622.5" y="23.3" fill="#FAF5EF" width="14.5" height="14.5"/>
		<rect x="622.5" y="45.3" fill="#FAF5EF" width="14.5" height="14.5"/>
		<rect x="622.5" y="67.4" fill="#FAF5EF" width="14.5" height="14.5"/>
		<rect x="622.5" y="89.4" fill="#FAF5EF" width="14.5" height="14.5"/>
		<rect x="622.5" y="111.5" fill="#FAF5EF" width="14.5" height="14.5"/>
		<rect x="622.5" y="133.5" fill="#FAF5EF" width="14.5" height="14.5"/>
	</g>
	<g>
		<rect x="600.5" y="-42.9" fill="#FAF5EF" width="14.5" height="14.5"/>
		<rect x="600.5" y="-20.8" fill="#FAF5EF" width="14.5" height="14.5"/>
		<rect x="600.5" y="1.2" fill="#FAF5EF" width="14.5" height="14.5"/>
		<rect x="600.5" y="23.3" fill="#FAF5EF" width="14.5" height="14.5"/>
		<rect x="600.5" y="45.3" fill="#FAF5EF" width="14.5" height="14.5"/>
		<rect x="600.5" y="67.4" fill="#FAF5EF" width="14.5" height="14.5"/>
		<rect x="600.5" y="89.4" fill="#FAF5EF" width="14.5" height="14.5"/>
		<rect x="600.5" y="111.5" fill="#FAF5EF" width="14.5" height="14.5"/>
		<rect x="600.5" y="133.5" fill="#FAF5EF" width="14.5" height="14.5"/>
	</g>
	<g>
		<rect x="578.4" y="-42.9" fill="#FAF5EF" width="14.5" height="14.5"/>
		<rect x="578.4" y="-20.8" fill="#FAF5EF" width="14.5" height="14.5"/>
		<rect x="578.4" y="1.2" fill="#FAF5EF" width="14.5" height="14.5"/>
		<rect x="578.4" y="23.3" fill="#FAF5EF" width="14.5" height="14.5"/>
		<rect x="578.4" y="45.3" fill="#FAF5EF" width="14.5" height="14.5"/>
		<rect x="578.4" y="67.4" fill="#FAF5EF" width="14.5" height="14.5"/>
		<rect x="578.4" y="89.4" fill="#FAF5EF" width="14.5" height="14.5"/>
		<rect x="578.4" y="111.5" fill="#FAF5EF" width="14.5" height="14.5"/>
		<rect x="578.4" y="133.5" fill="#FAF5EF" width="14.5" height="14.5"/>
	</g>
</g>
<rect x="506.9" y="-159.8" fill="#6F6D46" width="65.2" height="323.4"/>
<rect x="543.3" y="-94.1" fill="#444529" width="14.5" height="37.2"/>
<rect x="543.3" y="-37.5" fill="#444529" width="14.5" height="37.2"/>
<rect x="543.3" y="19.2" fill="#444529" width="14.5" height="37.2"/>
<rect x="543.3" y="75.9" fill="#444529" width="14.5" height="37.2"/>
<rect x="521.3" y="-94.1" fill="#444529" width="14.5" height="37.2"/>
<rect x="521.3" y="-37.5" fill="#444529" width="14.5" height="37.2"/>
<rect x="521.3" y="19.2" fill="#444529" width="14.5" height="37.2"/>
<rect x="521.3" y="75.9" fill="#444529" width="14.5" height="37.2"/>
<rect x="506.9" y="-168.9" fill="#444529" width="65.2" height="9.1"/>
<g>
	<rect x="420.6" y="27.3" fill="#FAF5EF" width="80.3" height="136.1"/>
	<rect x="432.7" y="36.6" fill="#424D51" width="56" height="8.3"/>
	<rect x="432.7" y="52.5" fill="#424D51" width="56" height="8.3"/>
	<rect x="432.7" y="68.5" fill="#424D51" width="56" height="8.3"/>
	<rect x="432.7" y="84.5" fill="#424D51" width="56" height="8.3"/>
	<rect x="432.7" y="100.4" fill="#424D51" width="56" height="8.3"/>
	<rect x="432.7" y="116.4" fill="#424D51" width="56" height="8.3"/>
	<rect x="432.7" y="132.4" fill="#424D51" width="56" height="8.3"/>
	<rect x="438.7" y="9.9" fill="#424D51" width="43.9" height="17.5"/>
</g>
<g>
	<rect x="719.8" y="27.7" fill="#424D51" width="80.3" height="136.1"/>
	<rect x="774.8" y="41.8" fill="#FAF5EF" width="14.5" height="14.5"/>
	<rect x="774.8" y="63.8" fill="#FAF5EF" width="14.5" height="14.5"/>
	<rect x="774.8" y="85.9" fill="#FAF5EF" width="14.5" height="14.5"/>
	<rect x="774.8" y="107.9" fill="#FAF5EF" width="14.5" height="14.5"/>
	<rect x="774.8" y="130" fill="#FAF5EF" width="14.5" height="14.5"/>
	<rect x="752.7" y="41.8" fill="#FAF5EF" width="14.5" height="14.5"/>
	<rect x="752.7" y="63.8" fill="#FAF5EF" width="14.5" height="14.5"/>
	<rect x="752.7" y="85.9" fill="#FAF5EF" width="14.5" height="14.5"/>
	<rect x="752.7" y="107.9" fill="#FAF5EF" width="14.5" height="14.5"/>
	<rect x="752.7" y="130" fill="#FAF5EF" width="14.5" height="14.5"/>
	<rect x="730.7" y="41.8" fill="#FAF5EF" width="14.5" height="14.5"/>
	<rect x="730.7" y="63.8" fill="#FAF5EF" width="14.5" height="14.5"/>
	<rect x="730.7" y="85.9" fill="#FAF5EF" width="14.5" height="14.5"/>
	<rect x="730.7" y="107.9" fill="#FAF5EF" width="14.5" height="14.5"/>
	<rect x="730.7" y="130" fill="#FAF5EF" width="14.5" height="14.5"/>
	<rect x="738" y="10.2" fill="#FAF5EF" width="43.9" height="17.5"/>
</g>
<g>
	<rect x="643.3" y="-65" fill="#BFCD80" width="76.5" height="228.7"/>
	<rect x="676.4" y="-76.6" fill="#85915B" width="28.3" height="11.6"/>
	<rect x="693.5" y="-54.8" fill="#85915B" width="13.6" height="218.5"/>
	<rect x="674.8" y="-54.8" fill="#85915B" width="13.6" height="218.5"/>
	<rect x="656.1" y="-54.8" fill="#85915B" width="13.6" height="218.5"/>
</g>
</svg>
