<?xml version="1.0" encoding="utf-8"?>
<!-- Generator: Adobe Illustrator 17.1.0, SVG Export Plug-In . SVG Version: 6.00 Build 0)  -->
<!DOCTYPE svg PUBLIC "-//W3C//DTD SVG 1.1//EN" "http://www.w3.org/Graphics/SVG/1.1/DTD/svg11.dtd">
<svg version="1.1" id="Layer_1" xmlns="http://www.w3.org/2000/svg" xmlns:xlink="http://www.w3.org/1999/xlink" x="0px" y="0px"
	 viewBox="0 0 65.2 292.6" enable-background="new 0 0 65.2 292.6" xml:space="preserve">
<g>
	<polygon fill="#424D51" points="-194.7,24.2 -194.7,292.6 -123.6,292.6 -123.6,76.2 	"/>
	<g>
		<rect x="-188.4" y="86" fill="#FAF5EF" width="14.5" height="14.5"/>
		<rect x="-188.4" y="108" fill="#FAF5EF" width="14.5" height="14.5"/>
		<rect x="-188.4" y="130.1" fill="#FAF5EF" width="14.5" height="14.5"/>
		<rect x="-188.4" y="152.1" fill="#FAF5EF" width="14.5" height="14.5"/>
		<rect x="-188.4" y="174.2" fill="#FAF5EF" width="14.5" height="14.5"/>
		<rect x="-188.4" y="196.2" fill="#FAF5EF" width="14.5" height="14.5"/>
		<rect x="-188.4" y="218.3" fill="#FAF5EF" width="14.5" height="14.5"/>
		<rect x="-188.4" y="240.3" fill="#FAF5EF" width="14.5" height="14.5"/>
		<rect x="-188.4" y="262.4" fill="#FAF5EF" width="14.5" height="14.5"/>
	</g>
	<g>
		<rect x="-166.4" y="86" fill="#FAF5EF" width="14.5" height="14.5"/>
		<rect x="-166.4" y="108" fill="#FAF5EF" width="14.5" height="14.5"/>
		<rect x="-166.4" y="130.1" fill="#FAF5EF" width="14.5" height="14.5"/>
		<rect x="-166.4" y="152.1" fill="#FAF5EF" width="14.5" height="14.5"/>
		<rect x="-166.4" y="174.2" fill="#FAF5EF" width="14.5" height="14.5"/>
		<rect x="-166.4" y="196.2" fill="#FAF5EF" width="14.5" height="14.5"/>
		<rect x="-166.4" y="218.3" fill="#FAF5EF" width="14.5" height="14.5"/>
		<rect x="-166.4" y="240.3" fill="#FAF5EF" width="14.5" height="14.5"/>
		<rect x="-166.4" y="262.4" fill="#FAF5EF" width="14.5" height="14.5"/>
	</g>
	<g>
		<rect x="-144.4" y="86" fill="#FAF5EF" width="14.5" height="14.5"/>
		<rect x="-144.4" y="108" fill="#FAF5EF" width="14.5" height="14.5"/>
		<rect x="-144.4" y="130.1" fill="#FAF5EF" width="14.5" height="14.5"/>
		<rect x="-144.4" y="152.1" fill="#FAF5EF" width="14.5" height="14.5"/>
		<rect x="-144.4" y="174.2" fill="#FAF5EF" width="14.5" height="14.5"/>
		<rect x="-144.4" y="196.2" fill="#FAF5EF" width="14.5" height="14.5"/>
		<rect x="-144.4" y="218.3" fill="#FAF5EF" width="14.5" height="14.5"/>
		<rect x="-144.4" y="240.3" fill="#FAF5EF" width="14.5" height="14.5"/>
		<rect x="-144.4" y="262.4" fill="#FAF5EF" width="14.5" height="14.5"/>
	</g>
</g>
<g>
	<rect x="-123.8" y="22.4" fill="#DBBFBB" width="47.2" height="270.2"/>
	<rect x="-115.4" y="34.6" fill="#847574" width="11.6" height="14.5"/>
	<rect x="-115.4" y="56.7" fill="#847574" width="11.6" height="14.5"/>
	<rect x="-115.4" y="78.7" fill="#847574" width="11.6" height="14.5"/>
	<rect x="-115.4" y="100.7" fill="#847574" width="11.6" height="14.5"/>
	<rect x="-115.4" y="122.8" fill="#847574" width="11.6" height="14.5"/>
	<rect x="-115.4" y="144.8" fill="#847574" width="11.6" height="14.5"/>
	<rect x="-115.4" y="166.9" fill="#847574" width="11.6" height="14.5"/>
	<rect x="-115.4" y="188.9" fill="#847574" width="11.6" height="14.5"/>
	<rect x="-115.4" y="211" fill="#847574" width="11.6" height="14.5"/>
	<rect x="-97.7" y="34.6" fill="#847574" width="11.6" height="14.5"/>
	<rect x="-97.7" y="56.7" fill="#847574" width="11.6" height="14.5"/>
	<rect x="-97.7" y="78.7" fill="#847574" width="11.6" height="14.5"/>
	<rect x="-97.7" y="100.7" fill="#847574" width="11.6" height="14.5"/>
	<rect x="-97.7" y="122.8" fill="#847574" width="11.6" height="14.5"/>
	<rect x="-97.7" y="144.8" fill="#847574" width="11.6" height="14.5"/>
	<rect x="-97.7" y="166.9" fill="#847574" width="11.6" height="14.5"/>
	<rect x="-97.7" y="188.9" fill="#847574" width="11.6" height="14.5"/>
	<rect x="-97.7" y="211" fill="#847574" width="11.6" height="14.5"/>
	<rect x="-115.4" y="232.4" fill="#847574" width="11.6" height="14.5"/>
	<rect x="-115.4" y="254.4" fill="#847574" width="11.6" height="14.5"/>
	<rect x="-97.7" y="232.4" fill="#847574" width="11.6" height="14.5"/>
	<rect x="-97.7" y="254.4" fill="#847574" width="11.6" height="14.5"/>
	<polygon fill="#FAF5EF" points="-87.6,-2.2 -100.2,-2.2 -112.7,-2.2 -127.8,22.4 -100.2,22.4 -72.5,22.4 	"/>
</g>
<g>
	<rect x="0" y="9.1" fill="#6F6D46" width="65.2" height="283.4"/>
	<rect x="14.3" y="34.8" fill="#444529" width="14.5" height="37.2"/>
	<rect x="14.3" y="91.4" fill="#444529" width="14.5" height="37.2"/>
	<rect x="14.3" y="148.1" fill="#444529" width="14.5" height="37.2"/>
	<rect x="14.3" y="204.8" fill="#444529" width="14.5" height="37.2"/>
	<rect x="36.4" y="34.8" fill="#444529" width="14.5" height="37.2"/>
	<rect x="36.4" y="91.4" fill="#444529" width="14.5" height="37.2"/>
	<rect x="36.4" y="148.1" fill="#444529" width="14.5" height="37.2"/>
	<rect x="36.4" y="204.8" fill="#444529" width="14.5" height="37.2"/>
	<rect x="0" y="0" fill="#444529" width="65.2" height="9.1"/>
</g>
<g>
	<rect x="-275.1" y="156.5" fill="#FAF5EF" width="80.3" height="136.1"/>
	<rect x="-262.9" y="165.7" fill="#424D51" width="56" height="8.3"/>
	<rect x="-262.9" y="181.7" fill="#424D51" width="56" height="8.3"/>
	<rect x="-262.9" y="197.7" fill="#424D51" width="56" height="8.3"/>
	<rect x="-262.9" y="213.7" fill="#424D51" width="56" height="8.3"/>
	<rect x="-262.9" y="229.6" fill="#424D51" width="56" height="8.3"/>
	<rect x="-262.9" y="245.6" fill="#424D51" width="56" height="8.3"/>
	<rect x="-262.9" y="261.6" fill="#424D51" width="56" height="8.3"/>
	<rect x="-256.9" y="139" fill="#424D51" width="43.9" height="17.5"/>
</g>
<g>
	<rect x="65.2" y="156.5" fill="#424D51" width="80.3" height="136.1"/>
	<rect x="76.1" y="170.6" fill="#FAF5EF" width="14.5" height="14.5"/>
	<rect x="76.1" y="192.7" fill="#FAF5EF" width="14.5" height="14.5"/>
	<rect x="76.1" y="214.7" fill="#FAF5EF" width="14.5" height="14.5"/>
	<rect x="76.1" y="236.8" fill="#FAF5EF" width="14.5" height="14.5"/>
	<rect x="76.1" y="258.8" fill="#FAF5EF" width="14.5" height="14.5"/>
	<rect x="98.1" y="170.6" fill="#FAF5EF" width="14.5" height="14.5"/>
	<rect x="98.1" y="192.7" fill="#FAF5EF" width="14.5" height="14.5"/>
	<rect x="98.1" y="214.7" fill="#FAF5EF" width="14.5" height="14.5"/>
	<rect x="98.1" y="236.8" fill="#FAF5EF" width="14.5" height="14.5"/>
	<rect x="98.1" y="258.8" fill="#FAF5EF" width="14.5" height="14.5"/>
	<rect x="120.2" y="170.6" fill="#FAF5EF" width="14.5" height="14.5"/>
	<rect x="120.2" y="192.7" fill="#FAF5EF" width="14.5" height="14.5"/>
	<rect x="120.2" y="214.7" fill="#FAF5EF" width="14.5" height="14.5"/>
	<rect x="120.2" y="236.8" fill="#FAF5EF" width="14.5" height="14.5"/>
	<rect x="120.2" y="258.8" fill="#FAF5EF" width="14.5" height="14.5"/>
	<rect x="83.4" y="139" fill="#FAF5EF" width="43.9" height="17.5"/>
</g>
<g>
	<rect x="-76.5" y="63.8" fill="#BFCD80" width="76.5" height="228.7"/>
	<rect x="-61.4" y="52.3" fill="#85915B" width="28.3" height="11.6"/>
	<rect x="-63.8" y="74" fill="#85915B" width="13.6" height="218.5"/>
	<rect x="-45.1" y="74" fill="#85915B" width="13.6" height="218.5"/>
	<rect x="-26.4" y="74" fill="#85915B" width="13.6" height="218.5"/>
</g>
<g>
	<polygon fill="#424D51" points="368.3,24.1 368.3,292.4 297.1,292.4 297.1,76 	"/>
	<g>
		<rect x="347.5" y="85.8" fill="#FAF5EF" width="14.5" height="14.5"/>
		<rect x="347.5" y="107.9" fill="#FAF5EF" width="14.5" height="14.5"/>
		<rect x="347.5" y="129.9" fill="#FAF5EF" width="14.5" height="14.5"/>
		<rect x="347.5" y="152" fill="#FAF5EF" width="14.5" height="14.5"/>
		<rect x="347.5" y="174" fill="#FAF5EF" width="14.5" height="14.5"/>
		<rect x="347.5" y="196" fill="#FAF5EF" width="14.5" height="14.5"/>
		<rect x="347.5" y="218.1" fill="#FAF5EF" width="14.5" height="14.5"/>
		<rect x="347.5" y="240.1" fill="#FAF5EF" width="14.5" height="14.5"/>
		<rect x="347.5" y="262.2" fill="#FAF5EF" width="14.5" height="14.5"/>
	</g>
	<g>
		<rect x="325.4" y="85.8" fill="#FAF5EF" width="14.5" height="14.5"/>
		<rect x="325.4" y="107.9" fill="#FAF5EF" width="14.5" height="14.5"/>
		<rect x="325.4" y="129.9" fill="#FAF5EF" width="14.5" height="14.5"/>
		<rect x="325.4" y="152" fill="#FAF5EF" width="14.5" height="14.5"/>
		<rect x="325.4" y="174" fill="#FAF5EF" width="14.5" height="14.5"/>
		<rect x="325.4" y="196" fill="#FAF5EF" width="14.5" height="14.5"/>
		<rect x="325.4" y="218.1" fill="#FAF5EF" width="14.5" height="14.5"/>
		<rect x="325.4" y="240.1" fill="#FAF5EF" width="14.5" height="14.5"/>
		<rect x="325.4" y="262.2" fill="#FAF5EF" width="14.5" height="14.5"/>
	</g>
	<g>
		<rect x="303.4" y="85.8" fill="#FAF5EF" width="14.5" height="14.5"/>
		<rect x="303.4" y="107.9" fill="#FAF5EF" width="14.5" height="14.5"/>
		<rect x="303.4" y="129.9" fill="#FAF5EF" width="14.5" height="14.5"/>
		<rect x="303.4" y="152" fill="#FAF5EF" width="14.5" height="14.5"/>
		<rect x="303.4" y="174" fill="#FAF5EF" width="14.5" height="14.5"/>
		<rect x="303.4" y="196" fill="#FAF5EF" width="14.5" height="14.5"/>
		<rect x="303.4" y="218.1" fill="#FAF5EF" width="14.5" height="14.5"/>
		<rect x="303.4" y="240.1" fill="#FAF5EF" width="14.5" height="14.5"/>
		<rect x="303.4" y="262.2" fill="#FAF5EF" width="14.5" height="14.5"/>
	</g>
</g>
<rect x="231.9" y="-31.1" fill="#6F6D46" width="65.2" height="323.4"/>
<rect x="268.3" y="34.6" fill="#444529" width="14.5" height="37.2"/>
<rect x="268.3" y="91.2" fill="#444529" width="14.5" height="37.2"/>
<rect x="268.3" y="147.9" fill="#444529" width="14.5" height="37.2"/>
<rect x="268.3" y="204.5" fill="#444529" width="14.5" height="37.2"/>
<rect x="246.2" y="34.6" fill="#444529" width="14.5" height="37.2"/>
<rect x="246.2" y="91.2" fill="#444529" width="14.5" height="37.2"/>
<rect x="246.2" y="147.9" fill="#444529" width="14.5" height="37.2"/>
<rect x="246.2" y="204.5" fill="#444529" width="14.5" height="37.2"/>
<rect x="231.9" y="-40.2" fill="#444529" width="65.2" height="9.1"/>
<g>
	<rect x="145.5" y="156" fill="#FAF5EF" width="80.3" height="136.1"/>
	<rect x="157.7" y="165.2" fill="#424D51" width="56" height="8.3"/>
	<rect x="157.7" y="181.2" fill="#424D51" width="56" height="8.3"/>
	<rect x="157.7" y="197.2" fill="#424D51" width="56" height="8.3"/>
	<rect x="157.7" y="213.1" fill="#424D51" width="56" height="8.3"/>
	<rect x="157.7" y="229.1" fill="#424D51" width="56" height="8.3"/>
	<rect x="157.7" y="245.1" fill="#424D51" width="56" height="8.3"/>
	<rect x="157.7" y="261.1" fill="#424D51" width="56" height="8.3"/>
	<rect x="163.7" y="138.5" fill="#424D51" width="43.9" height="17.5"/>
</g>
<g>
	<rect x="444.8" y="156.3" fill="#424D51" width="80.3" height="136.1"/>
	<rect x="499.7" y="170.5" fill="#FAF5EF" width="14.5" height="14.5"/>
	<rect x="499.7" y="192.5" fill="#FAF5EF" width="14.5" height="14.5"/>
	<rect x="499.7" y="214.6" fill="#FAF5EF" width="14.5" height="14.5"/>
	<rect x="499.7" y="236.6" fill="#FAF5EF" width="14.5" height="14.5"/>
	<rect x="499.7" y="258.6" fill="#FAF5EF" width="14.5" height="14.5"/>
	<rect x="477.7" y="170.5" fill="#FAF5EF" width="14.5" height="14.5"/>
	<rect x="477.7" y="192.5" fill="#FAF5EF" width="14.5" height="14.5"/>
	<rect x="477.7" y="214.6" fill="#FAF5EF" width="14.5" height="14.5"/>
	<rect x="477.7" y="236.6" fill="#FAF5EF" width="14.5" height="14.5"/>
	<rect x="477.7" y="258.6" fill="#FAF5EF" width="14.5" height="14.5"/>
	<rect x="455.7" y="170.5" fill="#FAF5EF" width="14.5" height="14.5"/>
	<rect x="455.7" y="192.5" fill="#FAF5EF" width="14.5" height="14.5"/>
	<rect x="455.7" y="214.6" fill="#FAF5EF" width="14.5" height="14.5"/>
	<rect x="455.7" y="236.6" fill="#FAF5EF" width="14.5" height="14.5"/>
	<rect x="455.7" y="258.6" fill="#FAF5EF" width="14.5" height="14.5"/>
	<rect x="463" y="138.9" fill="#FAF5EF" width="43.9" height="17.5"/>
</g>
<g>
	<rect x="368.3" y="63.7" fill="#BFCD80" width="76.5" height="228.7"/>
	<rect x="401.3" y="52.1" fill="#85915B" width="28.3" height="11.6"/>
	<rect x="418.4" y="73.9" fill="#85915B" width="13.6" height="218.5"/>
	<rect x="399.7" y="73.9" fill="#85915B" width="13.6" height="218.5"/>
	<rect x="381" y="73.9" fill="#85915B" width="13.6" height="218.5"/>
</g>
</svg>
